<?xml version="1.0" encoding="UTF-8"?>
<svg id="Capa_1" xmlns="http://www.w3.org/2000/svg" version="1.1" viewBox="0 0 160 160">
  <!-- Generator: Adobe Illustrator 29.8.1, SVG Export Plug-In . SVG Version: 2.1.1 Build 2)  -->
  <defs>
    <style>
      .st0 {
        fill: #005d95;
      }
    </style>
  </defs>
  <path class="st0" d="M58.48,65.82c-3.64.23-7.41-.13-11.21-1.07-.27-.07-.49-.1-.67-.08-.41.04-.64.31-.89.92-2.03,4.92-3,10.27-2.88,15.91,0,.13.11.38.29.58.13.18.24.25.29.27,5.25,1.97,10.12,3,14.88,3.14.34-.01.44-.07.47-.1.02-.02.07-.1.05-.42,0-.14,0-.26-.03-.4l-.07-.39c-.04-.25-.08-.5-.12-.75l-.08-.5c-.05-.36-.1-.71-.13-1.07l-.05-.63c-.29-5.42.03-10.16.98-14.49.05-.23.08-.4.08-.53.03-.31-.01-.36-.01-.36-.03-.03-.18-.1-.91-.06Z"/>
  <path class="st0" d="M69.45,45.41c.13-.14.24-.27.28-.39.07-.19.09-.4.07-.54,0-.01,0-.03,0-.04,0,0,0,0,0-.01-.02,0-.24-.04-.34-.02-.03,0-.2.05-.23.05-.06,0-.1,0-.13.01-8.61,2.73-15.51,8-20.5,15.65-.11.17-.18.32-.2.45-.02.09-.04.18-.02.21.02.03.13.15.7.23,2.21.3,4.46.55,6.63.79.81.09,1.62.18,2.43.28.06-.04.13-.08.19-.08.02,0,.04,0,.05,0,.15.03.31.05.46.07h0c1.51.17,1.82-.37,1.92-.87.01-.06.03-.11.04-.17,0-.03.04-.12.05-.14.17-.33.35-.8.59-1.44,1.92-5.08,4.55-9.73,7.82-13.82.06-.07.12-.14.18-.21Z"/>
  <path class="st0" d="M83.86,43.96c1.43,1.4,2.95,2.86,4.5,4.26.07.07.41.12.82.04l.27-.05s.07,0,.09,0c.07,0,.15,0,.23-.01.9-.11,1.82-.27,2.7-.42.48-.08.96-.17,1.44-.25.45-.07.9-.14,1.35-.19.15-.02,1.44-.23,2.3-.38-.18-.1-.38-.18-.58-.26-.11-.04-.21-.09-.31-.13-.7-.31-1.42-.6-2.14-.88-1.44-.55-2.91-1.04-4.39-1.44-1.16-.32-2.4-.62-3.89-.93-1.43-.3-2.58-.45-3.67-.46.18.17.37.33.56.5l.71.6Z"/>
  <path class="st0" d="M66.26,58.42c-.34.7-.66,1.38-.9,2.07,0,0,.02,0,.02,0,.11-.03.2-.06.24-.07.13-.06.26-.12.39-.19.05-.03.11-.04.16-.04.05,0,.1,0,.15-.01.32-.14.67-.28,1.02-.43.85-.35,1.74-.72,2.57-1.19,1.41-.8,2.82-1.61,4.23-2.42,2.25-1.26,4.48-2.57,6.36-3.68l3.43-1.99c.2-.12.33-.24.36-.34,0-.02.01-.04.02-.06,0-.01-.01-.02-.02-.04-.05-.1-.08-.15-.13-.21-.04-.06-.08-.11-.11-.14l-.86-.72c-2.01-1.69-4.08-3.43-6.18-5.08-.03,0-.07-.01-.1-.03-.1-.05-.2-.08-.3-.08-.13.01-.26.09-.44.27-.02.02-.06.05-.09.07-.48.37-.91.86-1.36,1.38l-.35.39c-3.2,3.57-5.8,7.52-7.73,11.73-.13.27-.26.55-.39.82Z"/>
  <path class="st0" d="M76.14,116.04c-1.43-1.4-2.96-2.87-4.5-4.26-.07-.07-.41-.12-.82-.04l-.27.05s-.07,0-.09,0c-.07,0-.15,0-.23.01-.91.11-1.82.27-2.71.43-.48.08-.95.17-1.43.25-.45.07-.9.14-1.35.19-.15.02-1.44.23-2.3.38.18.1.38.18.58.26.11.04.21.09.31.13.71.31,1.43.61,2.14.88,1.43.55,2.91,1.03,4.39,1.44,1.15.32,2.42.62,3.89.93h0c1.43.3,2.57.45,3.67.46-.18-.17-.37-.33-.56-.5l-.71-.6Z"/>
  <path class="st0" d="M93.74,101.58c.34-.7.66-1.38.9-2.07,0,0-.01,0-.02,0-.11.03-.2.06-.24.08-.13.06-.27.12-.4.19-.05.03-.11.04-.16.04-.05,0-.1,0-.15.01-.32.14-.67.28-1.02.43-.85.35-1.74.71-2.57,1.18-1.41.8-2.82,1.61-4.23,2.42-2.25,1.26-4.48,2.57-6.36,3.68l-3.43,1.99c-.2.12-.33.24-.36.34,0,.02-.01.04-.02.06,0,.01.02.02.02.04.05.1.08.15.13.21.04.06.08.11.11.14l.86.72c2.01,1.69,4.08,3.43,6.17,5.08.03,0,.07.01.1.03.23.12.42.13.74-.19.03-.02.06-.05.09-.07.47-.36.9-.85,1.36-1.37l.35-.39c3.2-3.57,5.8-7.51,7.73-11.73.13-.27.26-.55.39-.82Z"/>
  <path class="st0" d="M110.93,98.99c-2.21-.3-4.46-.55-6.64-.8-.81-.09-1.61-.18-2.42-.27-.08.05-.16.09-.25.08-.15-.03-.31-.05-.46-.07-1.5-.17-1.81.34-1.92.87-.01.06-.03.11-.04.17,0,.03-.04.12-.05.14-.17.33-.35.8-.59,1.44-1.92,5.08-4.55,9.73-7.82,13.82-.06.07-.12.14-.18.21-.12.14-.24.27-.28.39-.07.19-.09.4-.07.54,0,.01,0,.03,0,.04,0,0,.01.02.01.03,0,0,0,0,0,0,.04,0,.24.03.32,0,.03,0,.2-.05.23-.05.06,0,.1,0,.13-.01,8.62-2.73,15.51-8,20.5-15.65.11-.17.18-.32.2-.45.02-.08.04-.17.02-.21-.02-.02-.13-.15-.7-.23Z"/>
  <path class="st0" d="M76.45,26.27c-27.72,0-50.19,22.47-50.19,50.19v57.28h57.28c27.72,0,50.19-22.47,50.19-50.19V26.27h-57.28ZM118.72,94.23s0,0,0,0c-3.42,9.12-9.89,16.78-18.22,21.57-2.77,1.56-5.74,2.8-8.84,3.71-.75.22-1.51.42-2.35.62-1.07.24-2.1.43-2.99.59l-.7.13c-.49.08-.97.14-1.44.2-10.91.7-20.11-1.77-28.12-7.55l-.23-.17c-1.16-.85-2.3-1.77-3.41-2.76-.31-.28-.47-.66-.63-1.03-.06-.14-.12-.28-.18-.4-.06-.11-.06-.23,0-.34.05-.11.15-.19.26-.22.07-.02.15-.04.22-.07l.24-.06c.26-.07.53-.14.8-.16.03,0,.06,0,.09,0,3.87.91,7.67,1.1,11.38.59,3.05-.4,6.05-1.28,8.94-2.63,1.95-.88,3.93-1.97,5.88-3.24.86-.56,1.72-1.12,2.59-1.67.94-.57,1.87-1.13,2.8-1.69,1.6-.96,3.24-1.81,4.87-2.55.98-.44,1.91-.8,2.83-1.12l.53-.19c.64-.23,1.3-.47,1.98-.59.82-.15,1.19-.53,1.4-1.45.29-1.26.53-2.56.73-3.85.73-4.51.76-9.19.1-13.92-.07-.5-.19-.81-.38-.94-.19-.13-.52-.15-1.01-.05-2.36.46-4.77,1.29-7.37,2.54l-.36.17c-1.33.65-2.74,1.41-4.42,2.4-.93.55-1.86,1.1-2.78,1.66-2.86,1.72-5.82,3.49-8.87,4.94-1.09.52-2.23.98-3.38,1.36-3.71,1.16-7.6,1.66-11.54,1.5-2.81-.14-5.79-.62-8.87-1.43-1.71-.45-3.41-1.02-5.05-1.58-.93-.32-1.86-.63-2.8-.93-.64-.2-1.05-.53-1.28-1.04-.11-.25-.17-.53-.21-.85,0,0,0-.09,0-.1-.46-6.19.34-12.2,2.37-17.85,3.42-9.12,9.89-16.79,18.22-21.58,2.77-1.56,5.74-2.8,8.84-3.71.74-.22,1.51-.42,2.35-.62,1.06-.23,2.08-.42,2.97-.59l.72-.13c.49-.08.97-.14,1.44-.2,10.92-.7,20.11,1.77,28.12,7.55l.24.17c1.16.85,2.3,1.77,3.41,2.76.31.28.47.66.63,1.03.06.14.12.28.18.41.06.11.06.23,0,.35-.05.11-.15.19-.26.22-.07.02-.15.04-.22.07l-.24.07c-.26.07-.53.15-.8.16-.03,0-.06,0-.09,0-3.87-.91-7.67-1.11-11.38-.59-3.04.4-6.05,1.28-8.94,2.63-1.95.88-3.93,1.97-5.88,3.24-.86.56-1.72,1.12-2.59,1.67-.94.57-1.87,1.13-2.8,1.69-1.61.96-3.24,1.82-4.87,2.55-.98.44-1.91.8-2.83,1.12l-.52.18c-.64.23-1.3.47-1.99.59-.82.15-1.19.53-1.4,1.45-.29,1.26-.53,2.56-.73,3.85-.73,4.51-.76,9.2-.1,13.92.07.5.19.81.38.94.19.13.52.15,1.01.05,2.35-.46,4.76-1.29,7.36-2.53l.36-.17c1.33-.65,2.73-1.41,4.42-2.4.93-.55,1.85-1.1,2.78-1.66,2.86-1.72,5.82-3.49,8.87-4.95,1.09-.52,2.23-.98,3.38-1.36,3.71-1.16,7.59-1.66,11.54-1.5,2.81.14,5.79.62,8.87,1.43,1.71.45,3.41,1.02,5.05,1.58.93.32,1.86.63,2.8.93.64.2,1.05.53,1.28,1.04.11.25.17.53.21.85,0,0,0,.09,0,.09.46,6.19-.34,12.2-2.37,17.86Z"/>
  <path class="st0" d="M116.88,77.91c-.14-.18-.24-.26-.29-.28-5.25-1.97-10.11-3-14.88-3.14-.06,0-.12,0-.16,0-.21.02-.28.06-.31.09-.02.02-.07.11-.05.42,0,.14,0,.26.03.4l.07.39c.04.25.08.5.12.74l.08.51c.05.36.1.71.13,1.07l.05.63c.29,5.42-.03,10.16-.98,14.49h0c-.05.23-.08.4-.08.53-.03.31.01.36.01.36.03.03.18.1.91.05,3.64-.23,7.41.13,11.21,1.07.88.22,1.2.04,1.56-.84,2.03-4.92,3-10.27,2.88-15.91,0-.13-.11-.38-.29-.58Z"/>
</svg>