<svg width="228" height="223" viewBox="0 0 228 223" fill="none" xmlns="http://www.w3.org/2000/svg">
<path d="M95.8276 120.565L58.4778 158.169L66.2823 165.921L103.632 128.317L95.8276 120.565Z" fill="#101C42"/>
<path d="M52.4727 145.672L0 197.848L24.6785 222.667L77.1512 170.49L52.4727 145.672Z" fill="#FFDB58"/>
<path d="M6.8114 204.81L59.2684 152.762L71.4784 165.143L19.4784 217.81L6.8114 204.81Z" fill="#2343BF"/>
<path d="M227.977 88.427C227.977 136.476 189.026 175.427 140.977 175.427C92.9304 175.427 53.9794 136.476 53.9794 88.427C53.9794 40.378 92.9304 1.42699 140.977 1.42699C189.026 1.42799 227.977 40.379 227.977 88.427Z" fill="#FFDB58"/>
<path d="M212.977 88.427C212.977 128.192 180.743 160.427 140.977 160.427C101.214 160.427 68.9794 128.192 68.9794 88.427C68.9794 48.662 101.214 16.427 140.977 16.427C180.743 16.427 212.977 48.663 212.977 88.427Z" fill="white"/>
<path d="M141.811 170.427C96.8734 170.427 60.3124 133.867 60.3124 88.927C60.3124 43.988 96.8734 7.427 141.811 7.427C186.75 7.427 223.311 43.988 223.311 88.927C223.311 133.867 186.751 170.427 141.811 170.427ZM141.811 9.427C97.9754 9.427 62.3124 45.09 62.3124 88.927C62.3124 132.764 97.9754 168.427 141.811 168.427C185.647 168.427 221.311 132.764 221.311 88.927C221.311 45.09 185.647 9.427 141.811 9.427Z" fill="#2343BF"/>
<path d="M120.947 76.256H88.8444V96.881H120.947V76.256Z" fill="#2343BF"/>
<path d="M120.947 52.253H88.8444V72.878H120.947V52.253Z" fill="#2343BF"/>
<path d="M89.1443 101.005V138.371C97.6983 147.247 108.502 153.928 120.646 157.497V101.005H89.1443Z" fill="#2343BF"/>
<path d="M155.812 52.253H123.709V72.878H155.812V52.253Z" fill="#2343BF"/>
<path d="M155.812 26H123.709V46.625H155.812V26Z" fill="#2343BF"/>
<path d="M123.447 76.628V159.268C129.06 160.672 134.931 161.428 140.977 161.428C146.157 161.428 151.204 160.869 156.073 159.83V76.628H123.447Z" fill="#2343BF"/>
<path d="M191.978 52.253H159.874V72.878H191.978V52.253Z" fill="#2343BF"/>
<path d="M191.978 0H159.874V46.625H191.978V0Z" fill="#2343BF"/>
<path d="M159.874 77.025V157.904C172.202 154.559 183.22 148.035 191.978 139.248V77.025H159.874Z" fill="#2343BF"/>
</svg>
